<?xml version="1.0" encoding="utf-8"?>
<!-- Generator: Adobe Illustrator 25.1.0, SVG Export Plug-In . SVG Version: 6.00 Build 0)  -->
<svg version="1.1" id="Layer_1" xmlns="http://www.w3.org/2000/svg" xmlns:xlink="http://www.w3.org/1999/xlink" x="0px" y="0px"
	 viewBox="0 0 291.49 292.22" style="enable-background:new 0 0 291.49 292.22;" xml:space="preserve">
<style type="text/css">
	.st0{fill:#D0E8ED;stroke:#1D1D1B;stroke-miterlimit:10;}
	.st1{fill:none;stroke:#1D1D1B;stroke-miterlimit:10;}
</style>
<circle class="st0" cx="126.11" cy="137.54" r="56.32"/>
<circle class="st0" cx="247.33" cy="35.85" r="31.41"/>
<circle class="st0" cx="39.24" cy="253.64" r="35.14"/>
<circle class="st0" cx="65.5" cy="42.94" r="20.1"/>
<circle class="st0" cx="270.69" cy="171.87" r="16"/>
<circle class="st0" cx="179.49" cy="218.5" r="16"/>
<line class="st1" x1="76.47" y1="59.77" x2="96.42" y2="89.68"/>
<line class="st1" x1="169.29" y1="101.38" x2="224.45" y2="57.36"/>
<line class="st1" x1="180.55" y1="152.04" x2="254.96" y2="168.97"/>
<line class="st1" x1="157.08" y1="185.23" x2="170.81" y2="205.61"/>
<line class="st1" x1="60.05" y1="225.33" x2="91.11" y2="181.67"/>
<g>
	<path d="M108.39,109.31h20.04c2.86,0,5.63,0.28,8.29,0.84c2.67,0.56,5.01,1.5,7.03,2.82c2.02,1.32,3.63,3.09,4.84,5.3
		c1.21,2.22,1.81,4.98,1.81,8.29c0,3.76-0.65,6.79-1.94,9.09c-1.29,2.3-3.03,4.08-5.22,5.35s-4.73,2.12-7.62,2.57
		c-2.89,0.45-5.91,0.67-9.05,0.67H119v24.67h-10.61V109.31z M125.4,135.16c1.52,0,3.09-0.05,4.71-0.17c1.63-0.11,3.13-0.45,4.5-1.01
		c1.37-0.56,2.5-1.4,3.37-2.53c0.87-1.12,1.31-2.69,1.31-4.71c0-1.85-0.39-3.33-1.18-4.42c-0.79-1.09-1.8-1.94-3.03-2.53
		c-1.24-0.59-2.61-0.97-4.13-1.14c-1.52-0.17-2.98-0.25-4.38-0.25H119v16.75H125.4z"/>
</g>
</svg>
