<?xml version="1.0" encoding="UTF-8"?>
<svg width="1640" height="1120" xmlns="http://www.w3.org/2000/svg" xmlns:lucid="lucid" xmlns:xlink="http://www.w3.org/1999/xlink">
 <g transform="translate(-100 -120)" lucid:page-tab-id="0_0">
  <path d="M0 0h1870.4v1323.2H0z" fill="#fff"/>
  <path d="m1040 140h160v120h-160z" fill="#fff" stroke="#000" stroke-width="2"/>
  <use transform="matrix(1 0 0 1 1040 140) translate(39.03 63.15)" xlink:href="#a"/>
  <use transform="matrix(1,0,0,1,1040,140) translate(73.03 63.15)" xlink:href="#b"/>
  <path d="M700 140h160v120H700z" fill="#fff" stroke="#000" stroke-width="2"/>
  <use transform="matrix(1,0,0,1,700,140) translate(61.055 63.15)" xlink:href="#c"/>
  <path d="M1038 200H879.5" fill="none" stroke="#000" stroke-width="2"/>
  <path d="m1039 201h-1.03v-2h1.03z"/>
  <path d="m864.24 200 14.26-4.64v9.28z" stroke="#000" stroke-width="2"/>
  <use transform="matrix(1 0 0 1 1029.4 204) translate(0 14.4)" xlink:href="#d"/>
  <use transform="matrix(1 0 0 1 868.17 204) translate(0 14.4)" xlink:href="#e"/>
  <path d="M660 640h240v120H660z" fill="#fff" stroke="#000" stroke-width="2"/>
  <use transform="matrix(1,0,0,1,660,640) translate(38.13 63.15)" xlink:href="#f"/>
  <path d="M200 638V200h480.5" fill="none" stroke="#000" stroke-width="2"/>
  <path d="m201 639h-2v-1.03h2z"/>
  <path d="m695.76 200-14.26 4.64v-9.28z" stroke="#000" stroke-width="2"/>
  <use transform="matrix(1 0 0 1 185 611.31) translate(0 14.4)" xlink:href="#d"/>
  <use transform="matrix(1 0 0 1 682.92 174.4) translate(0 14.4)" xlink:href="#e"/>
  <use transform="matrix(1 0 0 1 208 598.82) translate(0 14.4)" xlink:href="#g"/>
  <path d="M320 420.5h160v120H320z" fill="#fff" stroke="#000" stroke-width="2"/>
  <use transform="matrix(1 0 0 1 320 420.5) translate(44.555 63.15)" xlink:href="#h"/>
  <path d="m1140 940h160v120h-160z" fill="#fff" stroke="#000" stroke-width="2"/>
  <use transform="matrix(1,0,0,1,1140,940) translate(35.105 63.15)" xlink:href="#i"/>
  <path d="M1220 938v-88H780v-70.5" fill="none" stroke="#000" stroke-width="2"/>
  <path d="m1221 939h-2v-1.03h2z"/>
  <path d="m780 764.24 4.64 14.26h-9.28z" stroke="#000" stroke-width="2"/>
  <use transform="matrix(1,0,0,1,1228,918.2) translate(0 14.4)" xlink:href="#d"/>
  <use transform="matrix(1 0 0 1 762 760.2) translate(0 14.4)" xlink:href="#e"/>
  <path d="M640 940.5h160v120H640z" fill="#fff" stroke="#000" stroke-width="2"/>
  <use transform="matrix(1 0 0 1 640 940.5) translate(24.055 63.15)" xlink:href="#j"/>
  <path d="M720 938.5v-88.25h60V779.5" fill="none" stroke="#000" stroke-width="2"/>
  <path d="m721 939.5h-2v-1.03h2z"/>
  <path d="m780 764.24 4.64 14.26h-9.28z" stroke="#000" stroke-width="2"/>
  <use transform="matrix(1,0,0,1,728,918.7) translate(0 14.4)" xlink:href="#d"/>
  <use transform="matrix(1 0 0 1 762 760.2) translate(0 14.4)" xlink:href="#e"/>
  <path d="M380 940.5h160v120H380z" fill="#fff" stroke="#000" stroke-width="2"/>
  <use transform="matrix(1 0 0 1 380 940.5) translate(49.555 63.15)" xlink:href="#k"/>
  <path d="M400 938.5V560" fill="none" stroke="#000" stroke-width="2"/>
  <path d="m401 939.5h-2v-1.03h2z"/>
  <path d="m400 544.74 4.64 14.26h-9.28z" stroke="#000" stroke-width="2"/>
  <use transform="matrix(1 0 0 1 408 918.7) translate(0 14.4)" xlink:href="#d"/>
  <use transform="matrix(1 0 0 1 382 540.7) translate(0 14.4)" xlink:href="#e"/>
  <use transform="matrix(1 0 0 1 325.1 892.36) translate(0 14.4)" xlink:href="#l"/>
  <path d="m542 1000.5h78.5" fill="none" stroke="#000" stroke-width="2"/>
  <path d="M542.03 1001.5H541v-2h1.03z"/>
  <path d="m635.76 1000.5-14.26 4.64v-9.28z" stroke="#000" stroke-width="2"/>
  <use transform="matrix(1 0 0 1 544.61 1004.5) translate(0 14.4)" xlink:href="#d"/>
  <use transform="matrix(1 0 0 1 609 974.9) translate(0 14.4)" xlink:href="#m"/>
  <use transform="matrix(1 0 0 1 543.45 974.9) translate(0 14.4)" xlink:href="#n"/>
  <path d="M460 938.5V820h320v-40.5" fill="none" stroke="#000" stroke-width="2"/>
  <path d="m461 939.5h-2v-1.03h2z"/>
  <path d="m780 764.24 4.64 14.26h-9.28z" stroke="#000" stroke-width="2"/>
  <use transform="matrix(1,0,0,1,468,918.7) translate(0 14.4)" xlink:href="#d"/>
  <use transform="matrix(1,0,0,1,762,760.2) translate(0 14.4)" xlink:href="#e"/>
  <path d="M120 640h160v120H120z" fill="#fff" stroke="#000" stroke-width="2"/>
  <use transform="matrix(1 0 0 1 120 640) translate(28.63 63.15)" xlink:href="#o"/>
  <path d="M860 940h160v120H860z" fill="#fff" stroke="#000" stroke-width="2"/>
  <use transform="matrix(1 0 0 1 860 940) translate(54.08 63.15)" xlink:href="#p"/>
  <path d="M893.57 938v-39H840v231H200V779.5" fill="none" stroke="#000" stroke-width="2"/>
  <path d="m894.57 939h-2v-1.03h2z"/>
  <path d="m200 764.24 4.64 14.26h-9.28z" stroke="#000" stroke-width="2"/>
  <use transform="matrix(1 0 0 1 901.57 907.34) translate(0 14.4)" xlink:href="#d"/>
  <use transform="matrix(1 0 0 1 182 760.2) translate(0 14.4)" xlink:href="#e"/>
  <use transform="matrix(1 0 0 1 842.88 873.4) translate(0 14.4)" xlink:href="#q"/>
  <path d="m1020 1100h160v120h-160z" fill="#fff" stroke="#000" stroke-width="2"/>
  <use transform="matrix(1 0 0 1 1020 1100) translate(7.105 63.15)" xlink:href="#r"/>
  <path d="m1182 1160h38v-80.5" fill="none" stroke="#000" stroke-width="2"/>
  <path d="m1182 1161h-1.03v-2h1.03z"/>
  <path d="m1220 1064.2 4.64 14.26h-9.28z" stroke="#000" stroke-width="2"/>
  <use transform="matrix(1 0 0 1 1187.7 1164) translate(0 14.4)" xlink:href="#d"/>
  <use transform="matrix(1,0,0,1,1202,1060.2) translate(0 14.4)" xlink:href="#e"/>
  <use transform="matrix(1,0,0,1,1228,1149.2) translate(0 14.4)" xlink:href="#s"/>
  <use transform="matrix(1,0,0,1,1228,1149.2) translate(74.85 14.4)" xlink:href="#t"/>
  <path d="m1018 1160h-31.57v-80.5" fill="none" stroke="#000" stroke-width="2"/>
  <path d="m1019 1161h-1.03v-2h1.03z"/>
  <path d="m986.43 1064.2 4.64 14.26h-9.27z" stroke="#000" stroke-width="2"/>
  <use transform="matrix(1 0 0 1 1012.5 1134.4) translate(0 14.4)" xlink:href="#d"/>
  <use transform="matrix(1 0 0 1 968.43 1060.2) translate(0 14.4)" xlink:href="#e"/>
  <path d="M940 938V820H780v-40.5" fill="none" stroke="#000" stroke-width="2"/>
  <path d="m941 939h-2v-1.03h2z"/>
  <path d="m780 764.24 4.64 14.26h-9.28z" stroke="#000" stroke-width="2"/>
  <use transform="matrix(1 0 0 1 948 918.2) translate(0 14.4)" xlink:href="#d"/>
  <use transform="matrix(1 0 0 1 762 760.2) translate(0 14.4)" xlink:href="#e"/>
  <path d="m1360 940h160v121h-160z" fill="#fff" stroke="#000" stroke-width="2"/>
  <use transform="matrix(1 0 0 1 1368 948) translate(22.575 56.1)" xlink:href="#u"/>
  <path d="m1560 939.5h160v121h-160z" fill="#fff" stroke="#000" stroke-width="2"/>
  <use transform="matrix(1 0 0 1 1568 947.5) translate(7.675 56.1)" xlink:href="#v"/>
  <path d="M1640 937.5V820H780v-40.5" fill="none" stroke="#000" stroke-width="2"/>
  <path d="m1641 938.5h-2v-1.03h2z"/>
  <path d="m780 764.24 4.64 14.26h-9.28z" stroke="#000" stroke-width="2"/>
  <use transform="matrix(1,0,0,1,1648,917.7) translate(0 14.4)" xlink:href="#d"/>
  <use transform="matrix(1 0 0 1 762 760.2) translate(0 14.4)" xlink:href="#e"/>
  <path d="M1440 938v-88H780v-70.5" fill="none" stroke="#000" stroke-width="2"/>
  <path d="m1441 939h-2v-1.03h2z"/>
  <path d="m780 764.24 4.64 14.26h-9.28z" stroke="#000" stroke-width="2"/>
  <use transform="matrix(1,0,0,1,1448,918.2) translate(0 14.4)" xlink:href="#d"/>
  <use transform="matrix(1,0,0,1,762,760.2) translate(0 14.4)" xlink:href="#e"/>
  <path d="m780 543v77.5" fill="none" stroke="#000" stroke-width="2"/>
  <path d="M781 543.03h-2V542h2z"/>
  <path d="m780 635.76-4.64-14.26h9.28z" stroke="#000" stroke-width="2"/>
  <use transform="matrix(1 0 0 1 788 551.01) translate(0 14.4)" xlink:href="#w"/>
  <use transform="matrix(1 0 0 1 765 556.64) translate(0 14.4)" xlink:href="#d"/>
  <use transform="matrix(1 0 0 1 762 610.71) translate(0 14.4)" xlink:href="#e"/>
  <path d="M700 420h160v121H700z" fill="#fff" stroke="#000" stroke-width="2"/>
  <use transform="matrix(1,0,0,1,708,428) translate(38.05 56.1)" xlink:href="#x"/>
  <path d="M780 418V279.5" fill="none" stroke="#000" stroke-width="2"/>
  <path d="m781 419h-2v-1.03h2z"/>
  <path d="m780 264.24 4.64 14.26h-9.28z" stroke="#000" stroke-width="2"/>
  <use transform="matrix(1,0,0,1,742,389.2) translate(0 14.4)" xlink:href="#m"/>
  <use transform="matrix(1 0 0 1 762 260.2) translate(0 14.4)" xlink:href="#e"/>
  <path d="M400 418.5V340h380v-60.5" fill="none" stroke="#000" stroke-width="2"/>
  <path d="m401 419.5h-2v-1.03h2z"/>
  <path d="m780 264.24 4.64 14.26h-9.28z" stroke="#000" stroke-width="2"/>
  <use transform="matrix(1 0 0 1 362 393.42) translate(0 14.4)" xlink:href="#m"/>
  <use transform="matrix(1 0 0 1 762 260.2) translate(0 14.4)" xlink:href="#e"/>
  <path d="M1182 938V360H780v-80.5" fill="none" stroke="#000" stroke-width="2"/>
  <path d="m1183 939h-2v-1.03h2z"/>
  <path d="m780 264.24 4.64 14.26h-9.28z" stroke="#000" stroke-width="2"/>
  <use transform="matrix(1 0 0 1 1190 918.2) translate(0 14.4)" xlink:href="#d"/>
  <use transform="matrix(1 0 0 1 788 281.57) translate(0 14.4)" xlink:href="#e"/>
  <use transform="matrix(1 0 0 1 1054.2 911.8) translate(0 14.4)" xlink:href="#y"/>
  <defs>
   <path id="z" d="M205 0l-28-72H64L36 0H1l101-248h38L239 0h-34zm-38-99l-47-123c-12 45-31 82-46 123h93"/>
   <path id="A" d="M30-248c87 1 191-15 191 75 0 78-77 80-158 76V0H30v-248zm33 125c57 0 124 11 124-50 0-59-68-47-124-48v98"/>
   <path id="B" d="M33 0v-248h34V0H33"/>
   <g id="a">
    <use transform="scale(.05)" xlink:href="#z"/>
    <use transform="matrix(.05 0 0 .05 12 0)" xlink:href="#A"/>
    <use transform="matrix(.05 0 0 .05 24 0)" xlink:href="#B"/>
   </g>
   <path id="C" d="M127-220V0H93v-220H8v-28h204v28h-85"/>
   <path id="D" d="M100-194c62-1 85 37 85 99 1 63-27 99-86 99S16-35 15-95c0-66 28-99 85-99zM99-20c44 1 53-31 53-75 0-43-8-75-51-75s-53 32-53 75 10 74 51 75"/>
   <path id="E" d="M143 0L79-87 56-68V0H24v-261h32v163l83-92h37l-77 82L181 0h-38"/>
   <path id="F" d="M100-194c63 0 86 42 84 106H49c0 40 14 67 53 68 26 1 43-12 49-29l28 8c-11 28-37 45-77 45C44 4 14-33 15-96c1-61 26-98 85-98zm52 81c6-60-76-77-97-28-3 7-6 17-6 28h103"/>
   <path id="G" d="M117-194c89-4 53 116 60 194h-32v-121c0-31-8-49-39-48C34-167 62-67 57 0H25l-1-190h30c1 10-1 24 2 32 11-22 29-35 61-36"/>
   <g id="b">
    <use transform="scale(.05)" xlink:href="#C"/>
    <use transform="matrix(.05 0 0 .05 8.95 0)" xlink:href="#D"/>
    <use transform="matrix(.05 0 0 .05 18.95 0)" xlink:href="#E"/>
    <use transform="matrix(.05 0 0 .05 27.95 0)" xlink:href="#F"/>
    <use transform="matrix(.05 0 0 .05 37.95 0)" xlink:href="#G"/>
   </g>
   <path id="H" d="M232-93c-1 65-40 97-104 97C67 4 28-28 28-90v-158h33c8 89-33 224 67 224 102 0 64-133 71-224h33v155"/>
   <path id="I" d="M135-143c-3-34-86-38-87 0 15 53 115 12 119 90S17 21 10-45l28-5c4 36 97 45 98 0-10-56-113-15-118-90-4-57 82-63 122-42 12 7 21 19 24 35"/>
   <path id="J" d="M114-163C36-179 61-72 57 0H25l-1-190h30c1 12-1 29 2 39 6-27 23-49 58-41v29"/>
   <g id="c">
    <use transform="scale(.05)" xlink:href="#H"/>
    <use transform="matrix(.05 0 0 .05 12.95 0)" xlink:href="#I"/>
    <use transform="matrix(.05 0 0 .05 21.95 0)" xlink:href="#F"/>
    <use transform="matrix(.05 0 0 .05 31.95 0)" xlink:href="#J"/>
   </g>
   <path id="K" d="m80-196 47-18 7 23-49 13 32 44-20 13-27-46-27 45-21-12 33-44-49-13 8-23 47 19-2-53h23"/>
   <use id="d" transform="scale(.05)" xlink:href="#K"/>
   <path id="L" d="M27 0v-27h64v-190l-56 39v-29l58-41h29v221h61V0H27"/>
   <use id="e" transform="scale(.05)" xlink:href="#L"/>
   <path id="M" d="M30 0v-248h187v28H63v79h144v27H63v87h162V0H30"/>
   <path id="N" d="M101-234c-31-9-42 10-38 44h38v23H63V0H32v-167H5v-23h27c-7-52 17-82 69-68v24"/>
   <path id="O" d="m96-169c-40 0-48 33-48 73s9 75 48 75c24 0 41-14 43-38l32 2c-6 37-31 61-74 61-59 0-76-41-82-99-10-93 101-131 147-64 4 7 5 14 7 22l-32 3c-4-21-16-35-41-35"/>
   <path id="P" d="M210-169c-67 3-38 105-44 169h-31v-121c0-29-5-50-35-48C34-165 62-65 56 0H25l-1-190h30c1 10-1 24 2 32 10-44 99-50 107 0 11-21 27-35 58-36 85-2 47 119 55 194h-31v-121c0-29-5-49-35-48"/>
   <path id="Q" d="M59-47c-2 24 18 29 38 22v24C64 9 27 4 27-40v-127H5v-23h24l9-43h21v43h35v23H59v120"/>
   <path id="R" d="M30-248c118-7 216 8 213 122C240-48 200 0 122 0H30v-248zM63-27c89 8 146-16 146-99s-60-101-146-95v194"/>
   <path id="S" d="M141-36C126-15 110 5 73 4 37 3 15-17 15-53c-1-64 63-63 125-63 3-35-9-54-41-54-24 1-41 7-42 31l-33-3c5-37 33-52 76-52 45 0 72 20 72 64v82c-1 20 7 32 28 27v20c-31 9-61-2-59-35zM48-53c0 20 12 33 32 33 41-3 63-29 60-74-43 2-92-5-92 41"/>
   <path id="T" d="M24-231v-30h32v30H24zM24 0v-190h32V0H24"/>
   <g id="f">
    <use transform="scale(.05)" xlink:href="#M"/>
    <use transform="matrix(.05 0 0 .05 12 0)" xlink:href="#G"/>
    <use transform="matrix(.05 0 0 .05 22 0)" xlink:href="#N"/>
    <use transform="matrix(.05 0 0 .05 27 0)" xlink:href="#D"/>
    <use transform="matrix(.05 0 0 .05 37 0)" xlink:href="#J"/>
    <use transform="matrix(.05 0 0 .05 42.95 0)" xlink:href="#O"/>
    <use transform="matrix(.05 0 0 .05 51.95 0)" xlink:href="#F"/>
    <use transform="matrix(.05 0 0 .05 61.95 0)" xlink:href="#P"/>
    <use transform="matrix(.05 0 0 .05 76.9 0)" xlink:href="#F"/>
    <use transform="matrix(.05 0 0 .05 86.9 0)" xlink:href="#G"/>
    <use transform="matrix(.05 0 0 .05 96.9 0)" xlink:href="#Q"/>
    <use transform="matrix(.05 0 0 .05 101.9 0)" xlink:href="#R"/>
    <use transform="matrix(.05 0 0 .05 114.85 0)" xlink:href="#D"/>
    <use transform="matrix(.05 0 0 .05 124.85 0)" xlink:href="#P"/>
    <use transform="matrix(.05 0 0 .05 139.8 0)" xlink:href="#S"/>
    <use transform="matrix(.05 0 0 .05 149.8 0)" xlink:href="#T"/>
    <use transform="matrix(.05 0 0 .05 153.75 0)" xlink:href="#G"/>
   </g>
   <path id="U" d="M206 0h-36l-40-164L89 0H53L-1-190h32L70-26l43-164h34l41 164 42-164h31"/>
   <g id="g">
    <use transform="scale(.05)" xlink:href="#D"/>
    <use transform="matrix(.05 0 0 .05 10 0)" xlink:href="#U"/>
    <use transform="matrix(.05 0 0 .05 22.95 0)" xlink:href="#G"/>
    <use transform="matrix(.05 0 0 .05 32.95 0)" xlink:href="#F"/>
    <use transform="matrix(.05 0 0 .05 42.95 0)" xlink:href="#J"/>
   </g>
   <path id="V" d="M140-251c81 0 123 46 123 126C263-46 219 4 140 4 59 4 17-45 17-125s42-126 123-126zm0 227c63 0 89-41 89-101s-29-99-89-99c-61 0-89 39-89 99S79-25 140-24"/>
   <path id="W" d="M115-194c55 1 70 41 70 98S169 2 115 4C84 4 66-9 55-30l1 105H24l-1-265h31l2 30c10-21 28-34 59-34zm-8 174c40 0 45-34 45-75s-6-73-45-74c-42 0-51 32-51 76 0 43 10 73 51 73"/>
   <g id="h">
    <use transform="scale(.05)" xlink:href="#V"/>
    <use transform="matrix(.05 0 0 .05 14 0)" xlink:href="#W"/>
    <use transform="matrix(.05 0 0 .05 24 0)" xlink:href="#F"/>
    <use transform="matrix(.05 0 0 .05 34 0)" xlink:href="#J"/>
    <use transform="matrix(.05 0 0 .05 39.95 0)" xlink:href="#S"/>
    <use transform="matrix(.05 0 0 .05 49.95 0)" xlink:href="#Q"/>
    <use transform="matrix(.05 0 0 .05 54.95 0)" xlink:href="#D"/>
    <use transform="matrix(.05 0 0 .05 64.95 0)" xlink:href="#J"/>
   </g>
   <g id="i">
    <use transform="scale(.05)" xlink:href="#A"/>
    <use transform="matrix(.05 0 0 .05 12 0)" xlink:href="#F"/>
    <use transform="matrix(.05 0 0 .05 22 0)" xlink:href="#J"/>
    <use transform="matrix(.05 0 0 .05 27.95 0)" xlink:href="#P"/>
    <use transform="matrix(.05 0 0 .05 42.9 0)" xlink:href="#T"/>
    <use transform="matrix(.05 0 0 .05 46.85 0)" xlink:href="#Q"/>
    <use transform="matrix(.05 0 0 .05 51.85 0)" xlink:href="#z"/>
    <use transform="matrix(.05 0 0 .05 63.85 0)" xlink:href="#J"/>
    <use transform="matrix(.05 0 0 .05 69.8 0)" xlink:href="#F"/>
    <use transform="matrix(.05 0 0 .05 79.8 0)" xlink:href="#S"/>
   </g>
   <path id="X" d="M179-190L93 31C79 59 56 82 12 73V49c39 6 53-20 64-50L1-190h34L92-34l54-156h33"/>
   <path id="Y" d="M209 0H11v-25l151-195H24v-28h176v25L50-27h159V0"/>
   <g id="j">
    <use transform="scale(.05)" xlink:href="#A"/>
    <use transform="matrix(.05 0 0 .05 12 0)" xlink:href="#S"/>
    <use transform="matrix(.05 0 0 .05 22 0)" xlink:href="#X"/>
    <use transform="matrix(.05 0 0 .05 31 0)" xlink:href="#P"/>
    <use transform="matrix(.05 0 0 .05 45.95 0)" xlink:href="#F"/>
    <use transform="matrix(.05 0 0 .05 55.95 0)" xlink:href="#G"/>
    <use transform="matrix(.05 0 0 .05 65.95 0)" xlink:href="#Q"/>
    <use transform="matrix(.05 0 0 .05 70.95 0)" xlink:href="#Y"/>
    <use transform="matrix(.05 0 0 .05 81.9 0)" xlink:href="#D"/>
    <use transform="matrix(.05 0 0 .05 91.9 0)" xlink:href="#G"/>
    <use transform="matrix(.05 0 0 .05 101.9 0)" xlink:href="#F"/>
   </g>
   <path id="Z" d="M177-190C167-65 218 103 67 71c-23-6-38-20-44-43l32-5c15 47 100 32 89-28v-30C133-14 115 1 83 1 29 1 15-40 15-95c0-56 16-97 71-98 29-1 48 16 59 35 1-10 0-23 2-32h30zM94-22c36 0 50-32 50-73 0-42-14-75-50-75-39 0-46 34-46 75s6 73 46 73"/>
   <g id="k">
    <use transform="scale(.05)" xlink:href="#A"/>
    <use transform="matrix(.05 0 0 .05 12 0)" xlink:href="#S"/>
    <use transform="matrix(.05 0 0 .05 22 0)" xlink:href="#J"/>
    <use transform="matrix(.05 0 0 .05 27.95 0)" xlink:href="#E"/>
    <use transform="matrix(.05 0 0 .05 36.95 0)" xlink:href="#T"/>
    <use transform="matrix(.05 0 0 .05 40.9 0)" xlink:href="#G"/>
    <use transform="matrix(.05 0 0 .05 50.9 0)" xlink:href="#Z"/>
   </g>
   <g id="l">
    <use transform="scale(.05)" xlink:href="#D"/>
    <use transform="matrix(.05 0 0 .05 10 0)" xlink:href="#W"/>
    <use transform="matrix(.05 0 0 .05 20 0)" xlink:href="#F"/>
    <use transform="matrix(.05 0 0 .05 30 0)" xlink:href="#J"/>
    <use transform="matrix(.05 0 0 .05 35.95 0)" xlink:href="#S"/>
    <use transform="matrix(.05 0 0 .05 45.95 0)" xlink:href="#Q"/>
    <use transform="matrix(.05 0 0 .05 50.95 0)" xlink:href="#D"/>
    <use transform="matrix(.05 0 0 .05 60.95 0)" xlink:href="#J"/>
   </g>
   <path id="aa" d="M101-251c68 0 85 55 85 127S166 4 100 4C33 4 14-52 14-124c0-73 17-127 87-127zm-1 229c47 0 54-49 54-102s-4-102-53-102c-51 0-55 48-55 102 0 53 5 102 54 102"/>
   <path id="ab" d="M33 0v-38h34V0H33"/>
   <g id="m">
    <use transform="scale(.05)" xlink:href="#aa"/>
    <use transform="matrix(.05 0 0 .05 10 0)" xlink:href="#ab"/>
    <use transform="matrix(.05 0 0 .05 15 0)" xlink:href="#ab"/>
    <use transform="matrix(.05 0 0 .05 20 0)" xlink:href="#L"/>
   </g>
   <path id="ac" d="M9 0v-24l116-142H16v-24h144v24L44-24h123V0H9"/>
   <g id="n">
    <use transform="scale(.05)" xlink:href="#ac"/>
    <use transform="matrix(.05 0 0 .05 9 0)" xlink:href="#D"/>
    <use transform="matrix(.05 0 0 .05 19 0)" xlink:href="#G"/>
    <use transform="matrix(.05 0 0 .05 29 0)" xlink:href="#F"/>
   </g>
   <path id="ad" d="m185-189c-5-48-123-54-124 2 14 75 158 14 163 119 3 78-121 87-175 55-17-10-28-26-33-46l33-7c5 56 141 63 141-1 0-78-155-14-162-118-5-82 145-84 179-34 5 7 8 16 11 25"/>
   <g id="o">
    <use transform="scale(.05)" xlink:href="#A"/>
    <use transform="matrix(.05 0 0 .05 12 0)" xlink:href="#F"/>
    <use transform="matrix(.05 0 0 .05 22 0)" xlink:href="#J"/>
    <use transform="matrix(.05 0 0 .05 27.95 0)" xlink:href="#P"/>
    <use transform="matrix(.05 0 0 .05 42.9 0)" xlink:href="#T"/>
    <use transform="matrix(.05 0 0 .05 46.85 0)" xlink:href="#Q"/>
    <use transform="matrix(.05 0 0 .05 51.85 0)" xlink:href="#ad"/>
    <use transform="matrix(.05 0 0 .05 63.85 0)" xlink:href="#F"/>
    <use transform="matrix(.05 0 0 .05 73.85 0)" xlink:href="#J"/>
    <use transform="matrix(.05 0 0 .05 79.8 0)" xlink:href="#T"/>
    <use transform="matrix(.05 0 0 .05 83.75 0)" xlink:href="#F"/>
    <use transform="matrix(.05 0 0 .05 93.75 0)" xlink:href="#I"/>
   </g>
   <g id="p">
    <use transform="scale(.05)" xlink:href="#A"/>
    <use transform="matrix(.05 0 0 .05 12 0)" xlink:href="#F"/>
    <use transform="matrix(.05 0 0 .05 22 0)" xlink:href="#J"/>
    <use transform="matrix(.05 0 0 .05 27.95 0)" xlink:href="#P"/>
    <use transform="matrix(.05 0 0 .05 42.9 0)" xlink:href="#T"/>
    <use transform="matrix(.05 0 0 .05 46.85 0)" xlink:href="#Q"/>
   </g>
   <g id="q">
    <use transform="scale(.05)" xlink:href="#I"/>
    <use transform="matrix(.05 0 0 .05 9 0)" xlink:href="#F"/>
    <use transform="matrix(.05 0 0 .05 19 0)" xlink:href="#J"/>
    <use transform="matrix(.05 0 0 .05 24.95 0)" xlink:href="#T"/>
    <use transform="matrix(.05 0 0 .05 28.9 0)" xlink:href="#F"/>
    <use transform="matrix(.05 0 0 .05 38.9 0)" xlink:href="#I"/>
   </g>
   <path id="ae" d="M30 0v-248h33v221h125V0H30"/>
   <path id="af" d="M84 4C-5 8 30-112 23-190h32v120c0 31 7 50 39 49 72-2 45-101 50-169h31l1 190h-30c-1-10 1-25-2-33-11 22-28 36-60 37"/>
   <g id="r">
    <use transform="scale(.05)" xlink:href="#A"/>
    <use transform="matrix(.05 0 0 .05 12 0)" xlink:href="#F"/>
    <use transform="matrix(.05 0 0 .05 22 0)" xlink:href="#J"/>
    <use transform="matrix(.05 0 0 .05 27.95 0)" xlink:href="#P"/>
    <use transform="matrix(.05 0 0 .05 42.9 0)" xlink:href="#T"/>
    <use transform="matrix(.05 0 0 .05 46.85 0)" xlink:href="#Q"/>
    <use transform="matrix(.05 0 0 .05 51.85 0)" xlink:href="#ae"/>
    <use transform="matrix(.05 0 0 .05 61.85 0)" xlink:href="#D"/>
    <use transform="matrix(.05 0 0 .05 71.85 0)" xlink:href="#D"/>
    <use transform="matrix(.05 0 0 .05 81.85 0)" xlink:href="#E"/>
    <use transform="matrix(.05 0 0 .05 90.85 0)" xlink:href="#af"/>
    <use transform="matrix(.05 0 0 .05 100.85 0)" xlink:href="#W"/>
    <use transform="matrix(.05 0 0 .05 110.85 0)" xlink:href="#B"/>
    <use transform="matrix(.05 0 0 .05 115.85 0)" xlink:href="#Q"/>
    <use transform="matrix(.05 0 0 .05 120.85 0)" xlink:href="#F"/>
    <use transform="matrix(.05 0 0 .05 130.85 0)" xlink:href="#P"/>
   </g>
   <path id="ag" d="M87 75C49 33 22-17 22-94c0-76 28-126 65-167h31c-38 41-64 92-64 168S80 34 118 75H87"/>
   <path id="ah" d="M85-194c31 0 48 13 60 33l-1-100h32l1 261h-30c-2-10 0-23-3-31C134-8 116 4 85 4 32 4 16-35 15-94c0-66 23-100 70-100zm9 24c-40 0-46 34-46 75 0 40 6 74 45 74 42 0 51-32 51-76 0-42-9-74-50-73"/>
   <path id="ai" d="M68-38c1 34 0 65-14 84H32c9-13 17-26 17-46H33v-38h35"/>
   <g id="s">
    <use transform="scale(.05)" xlink:href="#ag"/>
    <use transform="matrix(.05 0 0 .05 5.95 0)" xlink:href="#ah"/>
    <use transform="matrix(.05 0 0 .05 15.95 0)" xlink:href="#D"/>
    <use transform="matrix(.05 0 0 .05 25.95 0)" xlink:href="#P"/>
    <use transform="matrix(.05 0 0 .05 40.9 0)" xlink:href="#S"/>
    <use transform="matrix(.05 0 0 .05 50.9 0)" xlink:href="#T"/>
    <use transform="matrix(.05 0 0 .05 54.85 0)" xlink:href="#G"/>
    <use transform="matrix(.05 0 0 .05 64.85 0)" xlink:href="#ai"/>
   </g>
   <path id="aj" d="M33-261c38 41 65 92 65 168S71 34 33 75H2C39 34 66-17 66-93S39-220 2-261h31"/>
   <g id="t">
    <use transform="scale(.05)" xlink:href="#T"/>
    <use transform="matrix(.05 0 0 .05 3.95 0)" xlink:href="#ah"/>
    <use transform="matrix(.05 0 0 .05 13.95 0)" xlink:href="#F"/>
    <use transform="matrix(.05 0 0 .05 23.95 0)" xlink:href="#G"/>
    <use transform="matrix(.05 0 0 .05 33.95 0)" xlink:href="#Q"/>
    <use transform="matrix(.05 0 0 .05 38.95 0)" xlink:href="#T"/>
    <use transform="matrix(.05 0 0 .05 42.9 0)" xlink:href="#N"/>
    <use transform="matrix(.05 0 0 .05 47.9 0)" xlink:href="#T"/>
    <use transform="matrix(.05 0 0 .05 51.85 0)" xlink:href="#F"/>
    <use transform="matrix(.05 0 0 .05 61.85 0)" xlink:href="#J"/>
    <use transform="matrix(.05 0 0 .05 67.8 0)" xlink:href="#aj"/>
   </g>
   <g id="u">
    <use transform="scale(.05)" xlink:href="#A"/>
    <use transform="matrix(.05 0 0 .05 12 0)" xlink:href="#S"/>
    <use transform="matrix(.05 0 0 .05 22 0)" xlink:href="#J"/>
    <use transform="matrix(.05 0 0 .05 27.95 0)" xlink:href="#E"/>
    <use transform="matrix(.05 0 0 .05 36.95 0)" xlink:href="#T"/>
    <use transform="matrix(.05 0 0 .05 40.9 0)" xlink:href="#G"/>
    <use transform="matrix(.05 0 0 .05 50.9 0)" xlink:href="#Z"/>
    <use transform="matrix(.05 0 0 .05 60.9 0)" xlink:href="#z"/>
    <use transform="matrix(.05 0 0 .05 72.9 0)" xlink:href="#J"/>
    <use transform="matrix(.05 0 0 .05 78.85 0)" xlink:href="#F"/>
    <use transform="matrix(.05 0 0 .05 88.85 0)" xlink:href="#S"/>
   </g>
   <path id="ak" d="M24 0v-261h32V0H24"/>
   <g id="v">
    <use transform="scale(.05)" xlink:href="#A"/>
    <use transform="matrix(.05 0 0 .05 12 0)" xlink:href="#S"/>
    <use transform="matrix(.05 0 0 .05 22 0)" xlink:href="#J"/>
    <use transform="matrix(.05 0 0 .05 27.95 0)" xlink:href="#E"/>
    <use transform="matrix(.05 0 0 .05 36.95 0)" xlink:href="#T"/>
    <use transform="matrix(.05 0 0 .05 40.9 0)" xlink:href="#G"/>
    <use transform="matrix(.05 0 0 .05 50.9 0)" xlink:href="#Z"/>
    <use transform="matrix(.05 0 0 .05 60.9 0)" xlink:href="#C"/>
    <use transform="matrix(.05 0 0 .05 69.85 0)" xlink:href="#F"/>
    <use transform="matrix(.05 0 0 .05 79.85 0)" xlink:href="#J"/>
    <use transform="matrix(.05 0 0 .05 85.8 0)" xlink:href="#P"/>
    <use transform="matrix(.05 0 0 .05 100.75 0)" xlink:href="#T"/>
    <use transform="matrix(.05 0 0 .05 104.7 0)" xlink:href="#G"/>
    <use transform="matrix(.05 0 0 .05 114.7 0)" xlink:href="#S"/>
    <use transform="matrix(.05 0 0 .05 124.7 0)" xlink:href="#ak"/>
   </g>
   <path id="al" d="M-5 72V49h209v23H-5"/>
   <g id="w">
    <use transform="scale(.05)" xlink:href="#F"/>
    <use transform="matrix(.05 0 0 .05 10 0)" xlink:href="#G"/>
    <use transform="matrix(.05 0 0 .05 20 0)" xlink:href="#N"/>
    <use transform="matrix(.05 0 0 .05 25 0)" xlink:href="#D"/>
    <use transform="matrix(.05 0 0 .05 35 0)" xlink:href="#J"/>
    <use transform="matrix(.05 0 0 .05 40.95 0)" xlink:href="#O"/>
    <use transform="matrix(.05 0 0 .05 49.95 0)" xlink:href="#F"/>
    <use transform="matrix(.05 0 0 .05 59.95 0)" xlink:href="#ah"/>
    <use transform="matrix(.05 0 0 .05 69.95 0)" xlink:href="#al"/>
    <use transform="matrix(.05 0 0 .05 79.95 0)" xlink:href="#ah"/>
    <use transform="matrix(.05 0 0 .05 89.95 0)" xlink:href="#D"/>
    <use transform="matrix(.05 0 0 .05 99.95 0)" xlink:href="#P"/>
    <use transform="matrix(.05 0 0 .05 114.9 0)" xlink:href="#S"/>
    <use transform="matrix(.05 0 0 .05 124.9 0)" xlink:href="#T"/>
    <use transform="matrix(.05 0 0 .05 128.85 0)" xlink:href="#G"/>
   </g>
   <g id="x">
    <use transform="scale(.05)" xlink:href="#M"/>
    <use transform="matrix(.05 0 0 .05 12 0)" xlink:href="#G"/>
    <use transform="matrix(.05 0 0 .05 22 0)" xlink:href="#N"/>
    <use transform="matrix(.05 0 0 .05 27 0)" xlink:href="#D"/>
    <use transform="matrix(.05 0 0 .05 37 0)" xlink:href="#J"/>
    <use transform="matrix(.05 0 0 .05 42.95 0)" xlink:href="#O"/>
    <use transform="matrix(.05 0 0 .05 51.95 0)" xlink:href="#F"/>
    <use transform="matrix(.05 0 0 .05 61.95 0)" xlink:href="#J"/>
   </g>
   <g id="y">
    <use transform="scale(.05)" xlink:href="#W"/>
    <use transform="matrix(.05 0 0 .05 10 0)" xlink:href="#F"/>
    <use transform="matrix(.05 0 0 .05 20 0)" xlink:href="#J"/>
    <use transform="matrix(.05 0 0 .05 25.95 0)" xlink:href="#P"/>
    <use transform="matrix(.05 0 0 .05 40.9 0)" xlink:href="#T"/>
    <use transform="matrix(.05 0 0 .05 44.85 0)" xlink:href="#Q"/>
    <use transform="matrix(.05 0 0 .05 49.85 0)" xlink:href="#Q"/>
    <use transform="matrix(.05 0 0 .05 54.85 0)" xlink:href="#F"/>
    <use transform="matrix(.05 0 0 .05 64.85 0)" xlink:href="#ah"/>
    <use transform="matrix(.05 0 0 .05 74.85 0)" xlink:href="#al"/>
    <use transform="matrix(.05 0 0 .05 84.85 0)" xlink:href="#af"/>
    <use transform="matrix(.05 0 0 .05 94.85 0)" xlink:href="#I"/>
    <use transform="matrix(.05 0 0 .05 103.85 0)" xlink:href="#F"/>
    <use transform="matrix(.05 0 0 .05 113.85 0)" xlink:href="#J"/>
   </g>
  </defs>
 </g>
</svg>
